# xmcd
#
# Track frame offsets:
#	150
#	25176
#	41075
#	54924
#	69267
#	81816
#	101709
#	115425
#	126768
#	148843
#	163148
#	176427
#	190126
#
# Disc length: 2696 seconds
#
# Revision: 0
# Processed by: cddbd v1.5.2PL0 Copyright (c) Steve Scherf et al.
# Submitted via: EZCDAudioConverter 7.0.6.1
#
DISCID=b20a860d
DTITLE=Maranatha Singers - Praise 6: Come and Sing Praises
DYEAR=1900
DGENRE=
TTITLE0=Come And Sing Praises/We Love You And Praise You
TTITLE1=Make Me A Servant
TTITLE2=Jesus
TTITLE3=Wonderful Counselor (Isa. 9:6)
TTITLE4=All Through The Day
TTITLE5=You Are My Hiding Place (Psa. 32:7/56:3)
TTITLE6=As For Me (Psa. 17:15)
TTITLE7=The Lord Is Good (Psa. 34:8)
TTITLE8=O Lord You're Beautiful/Beautiful
TTITLE9=Face To Face (Lord Let Me Know You)
TTITLE10=One Thing Is Needful (Luke 10:38-42)
TTITLE11=Holy, Holy, Holy (Rev. 4:8)
TTITLE12=The Lord Bless Thee (Numb. 6:24-26)
EXTD=
EXTT0=
EXTT1=
EXTT2=
EXTT3=
EXTT4=
EXTT5=
EXTT6=
EXTT7=
EXTT8=
EXTT9=
EXTT10=
EXTT11=
EXTT12=
PLAYORDER=
